<?xml version="1.0" standalone="no"?>
<!DOCTYPE svg PUBLIC "-//W3C//DTD SVG 20010904//EN"
 "http://www.w3.org/TR/2001/REC-SVG-20010904/DTD/svg10.dtd">
<svg version="1.0" xmlns="http://www.w3.org/2000/svg"
 width="550.000000pt" height="548.000000pt" viewBox="0 0 550.000000 548.000000"
 preserveAspectRatio="xMidYMid meet">
<metadata>
Created by potrace 1.12, written by Peter Selinger 2001-2015
</metadata>
<g transform="translate(0.000000,548.000000) scale(0.100000,-0.100000)"
fill="#000000" stroke="none">
<path d="M3404 5453 c-14 -16 -42 -52 -61 -81 l-34 -53 -52 6 c-29 4 -63 8
-77 10 -26 4 -163 15 -240 21 -69 5 -438 5 -505 0 -93 -7 -204 -17 -228 -21
-12 -2 -44 -6 -72 -10 -80 -10 -116 -15 -175 -26 -30 -6 -68 -13 -85 -15 -66
-12 -276 -68 -380 -102 -60 -20 -112 -36 -115 -37 -3 -1 -18 -7 -33 -13 -16
-7 -30 -12 -33 -12 -2 0 -26 -10 -52 -21 -26 -12 -63 -28 -82 -36 -19 -9 -74
-35 -122 -59 -283 -142 -494 -296 -718 -523 -134 -136 -160 -166 -224 -251
-22 -30 -43 -57 -46 -60 -21 -21 -69 -103 -65 -111 8 -12 30 -12 55 1 11 6 28
14 38 19 10 5 54 19 98 31 87 25 273 35 354 20 192 -35 357 -126 505 -278 69
-72 140 -161 177 -220 12 -20 25 -39 29 -42 14 -11 40 -71 34 -80 -10 -16 4
-12 69 20 162 79 386 96 564 45 62 -18 193 -78 214 -98 7 -6 32 -25 56 -41 62
-42 189 -180 246 -267 26 -41 57 -87 68 -102 14 -20 18 -37 13 -55 -5 -23
-158 -513 -341 -1092 -31 -96 -71 -222 -89 -280 -18 -58 -52 -166 -76 -240
-23 -74 -44 -139 -45 -145 -4 -20 -77 -244 -139 -430 -34 -104 -82 -251 -105
-325 -78 -248 -131 -313 -202 -247 -20 18 -25 32 -22 55 6 48 12 81 18 91 12
19 13 108 1 136 -13 33 -50 62 -75 59 -8 0 -23 -2 -33 -2 -10 -1 -34 -17 -52
-36 -46 -47 -68 -128 -69 -242 0 -79 4 -99 27 -146 48 -98 134 -154 254 -165
151 -14 244 94 343 402 23 72 44 137 47 145 3 8 7 20 8 25 5 20 287 912 312
985 13 41 27 84 29 94 2 11 19 67 38 125 19 58 58 180 86 271 28 91 57 183 64
205 8 22 30 94 51 160 20 66 54 174 75 240 21 66 53 166 71 222 l32 102 61 20
c454 150 914 34 1284 -323 34 -33 62 -68 62 -77 0 -24 28 -19 59 10 27 25 135
83 215 115 156 64 358 77 519 36 197 -51 392 -177 535 -344 l33 -38 -6 58 c-8
69 -11 92 -20 159 -10 80 -12 89 -18 115 -4 14 -9 36 -11 50 -14 78 -29 143
-47 208 -11 40 -22 81 -24 90 -2 9 -19 62 -38 117 -107 313 -270 624 -471 900
-257 353 -637 716 -1011 965 -44 29 -82 56 -85 60 -3 4 -10 9 -15 11 -38 14
-245 143 -246 152 0 7 -2 41 -3 77 -3 100 -5 107 -22 124 -23 23 -50 19 -80
-11z m61 -109 l0 -89 -32 -3 c-37 -4 -68 10 -82 37 -8 15 -2 31 31 77 70 101
83 98 83 -22z m-530 -24 c180 -11 357 -30 367 -39 4 -4 -38 -22 -95 -40 -234
-76 -543 -217 -773 -354 -411 -244 -757 -581 -952 -926 -61 -107 -130 -261
-153 -338 -7 -24 -15 -43 -18 -42 -3 0 -31 39 -61 86 -70 109 -227 275 -325
342 -186 129 -380 181 -590 160 -78 -8 -121 -18 -249 -56 -37 -11 135 199 289
353 269 270 558 460 924 609 469 190 1070 281 1636 245z m422 -94 c-3 -6 -48
-109 -101 -229 -244 -556 -479 -1245 -616 -1804 -22 -88 -40 -168 -40 -177 0
-27 -16 -18 -34 22 -34 72 -146 230 -216 305 -252 269 -580 359 -920 251 -41
-13 -76 -21 -78 -19 -8 8 39 126 98 250 198 412 559 777 1055 1065 201 116
504 251 730 325 96 32 131 35 122 11z m111 -40 c13 -11 54 -61 91 -111 286
-379 488 -844 575 -1325 40 -222 50 -343 50 -590 1 -203 -16 -468 -31 -493 -3
-4 -34 20 -69 53 -314 293 -696 423 -1074 365 -109 -16 -242 -53 -324 -89 -55
-24 -56 -25 -56 -4 0 33 107 446 172 663 141 474 323 966 510 1385 39 85 72
161 75 167 7 17 52 6 81 -21z m274 -112 c263 -167 546 -400 766 -629 430 -448
722 -960 862 -1510 39 -154 84 -394 78 -422 -2 -12 -16 -4 -53 29 -130 117
-271 196 -430 244 -78 24 -108 27 -230 28 -175 1 -260 -20 -429 -103 l-118
-59 6 52 c42 345 33 721 -24 1046 -88 496 -321 1020 -620 1394 l-63 79 68 -37
c37 -20 121 -71 187 -112z m-1162 -2145 c0 -9 7 -19 15 -23 9 -3 15 0 15 8 0
11 69 49 77 42 2 -1 -678 -2158 -690 -2188 -12 -33 -126 -10 -127 25 -1 6 153
502 342 1100 293 933 344 1086 355 1071 7 -10 13 -25 13 -35z m-697 -2194 c20
-8 50 -15 67 -15 16 0 30 -3 30 -6 0 -12 -119 -380 -140 -434 -52 -131 -123
-219 -195 -239 -93 -25 -224 32 -280 123 -28 46 -30 55 -30 150 0 56 6 121 13
145 26 85 101 129 136 79 20 -28 20 -77 1 -148 -28 -105 -13 -157 54 -184 48
-18 73 -12 113 30 38 41 68 113 135 326 32 104 59 188 59 188 1 0 18 -7 37
-15z"/>
</g>
</svg>
